<?xml version="1.0" encoding="UTF-8"?>
<svg width="20px" height="20px" viewBox="0 0 20 20" version="1.1" xmlns="http://www.w3.org/2000/svg" xmlns:xlink="http://www.w3.org/1999/xlink">
    <!-- Generator: Sketch 47.1 (45422) - http://www.bohemiancoding.com/sketch -->
    <title>Android/SVGicon/price</title>
    <desc>Created with Sketch.</desc>
    <defs></defs>
    <g id="Symbols" stroke="none" stroke-width="1" fill="none" fill-rule="evenodd">
        <g id="icon/price">
            <g id="icon-product-price" transform="translate(2.000000, 3.000000)">
                <path d="M0,9 L8.71378821,0.904140615 L14.0527441,1.36626164 C14.0527441,1.36626164 15.6989057,5.30011575 14.0527441,7.13147756 C12.4065826,8.96283937 6.21586514,14.8816596 6.21586514,14.8816596 L0,9 Z" id="Rectangle-6" fill="#EDF0F7"></path>
                <circle id="Oval" fill="#8F939C" cx="11" cy="4" r="1"></circle>
                <path d="M5.99203753,14.97 C5.93317602,14.9601874 5.87407259,14.9456154 5.8145,14.926 C5.506,14.825 5.3035,14.632 5.282,14.6095 L0.4785,9.889 C0.4555,9.8685 0.258,9.6675 0.1565,9.3655 C0.0125,8.9395 0.1255,8.5155 0.4785,8.17 L1.01,7.6465 C2.4795,6.202 6.438,2.3125 6.653,2.1 C6.758,1.997 6.9265,1.997 7.031,2.1 C7.136,2.203 7.136,2.3685 7.031,2.4715 C6.815,2.6835 2.857,6.573 1.3875,8.0175 L0.8545,8.541 C0.387,9.0005 0.7745,9.4365 0.856,9.5195 L5.659,14.2385 C5.743,14.3185 6.1855,14.698 6.653,14.2385 L12.83,8.17 C13.4955,7.516 13.829,7.1885 13.981,6.8895 C14.125,6.6065 14.125,6.3095 14.125,5.6575 L14.125,2.2845 C14.125,1.758 13.556,1.199 13.0195,1.199 L8.901,1.199 C8.754,1.199 8.635,1.081 8.635,0.937 C8.635,0.792 8.754,0.675 8.901,0.675 L13.0195,0.675 C13.8465,0.675 14.658,1.4715 14.6575,2.2845 L14.6575,5.6575 C14.6575,7.114 14.6035,7.169 13.207,8.541 L7.031,14.6095 C6.83037488,14.8085297 6.60238681,14.9292886 6.36327973,14.97 L5.99203753,14.97 L5.99203753,14.97 Z" id="Mask" stroke="#8F939C" stroke-width="0.5" fill="#8F939C"></path>
                <path d="M2.725,5.2455 C2.746,5.2455 2.769,5.2425 2.7905,5.238 C2.9325,5.2025 3.021,5.0595 2.985,4.92 C2.571,3.297 2.6775,1.936 3.2725,1.1855 C3.6225,0.7475 4.1295,0.524 4.783,0.524 C6.382,0.524 9.6485,3.39 10.7715,4.494 C10.876,4.5965 11.0445,4.5965 11.1495,4.494 C11.2525,4.391 11.2525,4.2255 11.1495,4.1225 C10.9775,3.9545 6.928,0 4.783,0 C3.969,0 3.3005,0.299 2.8525,0.863 C2.1445,1.755 2.0075,3.241 2.4665,5.0465 C2.496,5.1655 2.6055,5.2455 2.725,5.2455 L2.725,5.2455 Z" id="Clip-8" stroke="#8F939C" stroke-width="0.5" fill="#8F939C"></path>
            </g>
        </g>
    </g>
</svg>